<svg xmlns="http://www.w3.org/2000/svg" viewBox="0 0 64 64" style="enable-background:new 0 0 64 64" xml:space="preserve"><path d="M6 12c0-3.3 2.7-6 6-6h28c3.3 0 6 2.7 6 6v44c0 3.3-2.7 6-6 6H12c-3.3 0-6-2.7-6-6V12z" style="fill:#fff"/><path d="M16.7 6c1-4 5-6.6 9.1-5.9l27.6 4.7c4.4.7 7.3 4.9 6.5 9.2l-7.4 43.3c-.7 4.3-4.9 7.3-9.2 6.5L36 62.6V64H12c-4.4 0-8-3.6-8-8V12c0-4.4 3.6-8 8-8h4v4h-4c-2.2 0-4 1.8-4 4v32c0 2.2 4.5 4 10 4 14.4 0 26-10.7 26-24v32c0 3.3-2.7 6-6 6h2c3.3 0 6-2.7 6-6V12c0-3.3-2.7-6-6-6H16.7z" style="fill:#acbdc5"/><path d="m46 7.6 6.7 1.1c2.2.4 3.6 2.4 3.3 4.6l-7.4 43.3c-.2 1.4-1.2 2.6-2.5 3.1V7.6zM17.4 34.4 26 43l8.6-8.6c.9-.9 1.4-2.2 1.4-3.5 0-2.7-2.2-4.9-4.9-4.9-1.3 0-2.6.5-3.5 1.4L26 29l-1.6-1.6c-.9-.9-2.2-1.4-3.5-1.4-2.7 0-4.9 2.2-4.9 4.9 0 1.4.5 2.6 1.4 3.5zm2-18.9c.4-.4.6-.9.6-1.4V14c0-1.1-.9-2-2-2-.5 0-1 .2-1.4.6l-.6.6-.6-.6c-.4-.4-.9-.6-1.4-.6-1.1 0-2 .9-2 2v.1c0 .5.2 1 .6 1.4L16 19l3.4-3.5z" style="fill:#ff6c58"/><path d="M40 8H16V4h24c4.4 0 8 3.6 8 8v44c0 4.4-3.6 8-8 8h-4v-4h4c2.2 0 4-1.8 4-4V12c0-2.2-1.8-4-4-4z" style="fill-rule:evenodd;clip-rule:evenodd;fill:#314a52"/><path d="M32.6 52.5 36 49l3.4 3.5c.4.4.6.9.6 1.4v.1c0 1.1-.9 2-2 2-.5 0-1-.2-1.4-.6l-.6-.6-.6.6c-.4.4-.9.6-1.4.6-1.1 0-2-.9-2-2v-.1c0-.5.2-1 .6-1.4z" style="fill:#d7385e"/></svg>